# Blender 4.4.0
# www.blender.org
mtllib cube.mtl
o cube
v -0.500000 -0.500000 0.500000
v -0.500000 0.500000 0.500000
v -0.500000 -0.500000 -0.500000
v -0.500000 0.500000 -0.500000
v 0.500000 -0.500000 0.500000
v 0.500000 0.500000 0.500000
v 0.500000 -0.500000 -0.500000
v 0.500000 0.500000 -0.500000
vn -0.0000 -1.0000 -0.0000
vn -1.0000 -0.0000 -0.0000
vn -0.0000 -0.0000 -1.0000
vn 1.0000 -0.0000 -0.0000
vn -0.0000 -0.0000 1.0000
vn -0.0000 1.0000 -0.0000
vt 0.250043 0.500000
vt 0.000087 0.250043
vt 0.250043 0.250043
vt 0.000087 0.500000
vt 0.500000 0.749957
vt 0.250043 0.749957
vt 0.500000 0.500000
vt 0.500000 0.999913
vt 0.250043 0.999913
vt 0.250043 0.000087
vt 0.500000 0.000087
vt 0.500000 0.250043
vt 0.749957 0.250043
vt 0.749957 0.500000
s 1
usemtl Material.002
f 1/1/1 7/2/1 5/3/1
f 1/1/1 3/4/1 7/2/1
f 1/1/2 4/5/2 3/6/2
f 1/1/2 2/7/2 4/5/2
f 3/6/3 8/8/3 7/9/3
f 3/6/3 4/5/3 8/8/3
f 5/3/4 7/10/4 8/11/4
f 5/3/4 8/11/4 6/12/4
f 1/1/5 5/3/5 6/12/5
f 1/1/5 6/12/5 2/7/5
f 2/7/6 6/12/6 8/13/6
f 2/7/6 8/13/6 4/14/6
